<?xml version="1.0" encoding="UTF-8" standalone="no"?>
<!-- Created with Inkscape (http://www.inkscape.org/) -->

<svg
   width="16.0px"
   height="16.0px"
   viewBox="0 0 16.0 16.0"
   version="1.1"
   id="SVGRoot"
   sodipodi:docname="shield-symbolic.svg"
   inkscape:version="1.2.1 (9c6d41e410, 2022-07-14)"
   xmlns:inkscape="http://www.inkscape.org/namespaces/inkscape"
   xmlns:sodipodi="http://sodipodi.sourceforge.net/DTD/sodipodi-0.dtd"
   xmlns="http://www.w3.org/2000/svg"
   xmlns:svg="http://www.w3.org/2000/svg">
  <sodipodi:namedview
     id="namedview137"
     pagecolor="#ffffff"
     bordercolor="#000000"
     borderopacity="0.25"
     inkscape:showpageshadow="2"
     inkscape:pageopacity="0.0"
     inkscape:pagecheckerboard="0"
     inkscape:deskcolor="#d1d1d1"
     inkscape:document-units="px"
     showgrid="true"
     inkscape:zoom="56.673746"
     inkscape:cx="6.2462785"
     inkscape:cy="8.9106515"
     inkscape:window-width="1920"
     inkscape:window-height="1011"
     inkscape:window-x="0"
     inkscape:window-y="0"
     inkscape:window-maximized="1"
     inkscape:current-layer="layer1">
    <inkscape:grid
       type="xygrid"
       id="grid260" />
  </sodipodi:namedview>
  <defs
     id="defs132">
    <inkscape:path-effect
       effect="spiro"
       id="path-effect686"
       is_visible="true"
       lpeversion="1" />
  </defs>
  <g
     inkscape:label="Layer 1"
     inkscape:groupmode="layer"
     id="layer1">
    <rect
       style="fill:#4d4d4d"
       id="rect570"
       width="10"
       height="9"
       x="2.9770451"
       y="3.0227065" />
    <ellipse
       style="fill:#4d4d4d"
       id="path572"
       cx="7.9714303"
       cy="12"
       rx="5"
       ry="2" />
    <path
       style="fill:#4d4d4d"
       d="m 7.6561061,3.0531778 v 0.2566895 c 0,0.077404 -0.00418,0.1548878 0,0.2321787 0.00274,0.050711 0.010265,0.1010443 0.014223,0.1516751 0.00899,0.1149972 -4.647e-4,0.2305598 0,0.3459069 4.399e-4,0.1092003 0.00977,0.2181462 0.018945,0.3269615 0.00253,0.030064 0.00506,0.060153 0.00944,0.090004 0.00532,0.036286 0.0134,0.072341 0.014223,0.1090059 2.482e-4,0.011054 0,0.022112 0,0.033168 v 0.056836 0.1516188 0.1753427 0.033168 c 0,0.017371 1.269e-4,0.034743 0,0.052114 -2.082e-4,0.028504 -0.00133,0.057036 -0.00472,0.085338 -0.00455,0.037957 -0.013165,0.075515 -0.014223,0.1137282 -3.932e-4,0.014199 0,0.028408 0,0.042613 v 0.1042274 0.019002 c 0,0.00632 1.428e-4,0.012632 0,0.018945 -3.233e-4,0.014298 -0.00259,0.02847 -0.00472,0.042613 -0.00166,0.011044 -0.00323,0.0221 -0.00472,0.033168 -0.00466,0.010553 -0.00787,0.021748 -0.0095,0.033168 -0.0027,0.018852 -0.00112,0.038191 -0.00472,0.056892 -0.00464,0.024141 -0.017771,0.046503 -0.018945,0.071059 -3.016e-4,0.00631 0,0.012629 0,0.018945 v 0.018945 0.074376 0.2937932 0.2795701 0.089611 0.031875 c 0,0.00632 -4.38e-4,0.012644 0,0.018945 6.671e-4,0.0096 0.00402,0.018851 0.00472,0.028446 4.585e-4,0.0063 -2.379e-4,0.012632 0,0.018945 3.624e-4,0.00962 0.00288,0.019 0.00472,0.028446 0.00214,0.010964 0.00337,0.02208 0.00472,0.033168 0.00675,0.055436 0.016417,0.110477 0.023724,0.1658419 0.00354,0.026805 0.00652,0.05368 0.00944,0.08056 0.00241,0.022218 0.00479,0.04449 0.0095,0.066337 0.0034,0.015759 0.00801,0.031333 0.00944,0.047391 0.00112,0.012588 2.615e-4,0.025256 0,0.037891 -6.265e-4,0.030268 0.00221,0.060678 0.0095,0.090061 0.00277,0.011163 0.00618,0.022157 0.0095,0.033168 0.00664,0.022016 0.012964,0.044131 0.018945,0.066337 0.0039,0.014482 0.0077,0.029109 0.014223,0.042613 0.00781,0.016168 0.019551,0.030801 0.023214,0.048381 0.00183,0.00879 0.00145,0.018263 -0.00249,0.02633 -0.00197,0.00403 -0.00482,0.00766 -0.00838,0.010386 -0.00357,0.00272 -0.00787,0.00452 -0.012335,0.00496 -0.00289,2.847e-4 -0.0058,7.5e-6 -0.00871,0 -0.00756,-1.95e-5 -0.01506,0.0018 -0.022037,0.00472 -0.013162,0.0055 -0.024481,0.014838 -0.033728,0.025701 -0.00925,0.010863 -0.016535,0.023251 -0.023108,0.035913 -0.017991,0.034661 -0.030907,0.071711 -0.042669,0.1089497 -0.024401,0.077259 -0.04417,0.1563269 -0.052114,0.2369572 -0.00419,0.042493 -0.00472,0.085252 -0.00472,0.1279512 v 0.052114 0.023668 c 0,0.00632 -8.474e-4,0.012682 0,0.018945 6.151e-4,0.00455 0.00243,0.00888 0.00495,0.012716 0.00252,0.00383 0.00574,0.00714 0.00899,0.010388 l 0.018889,0.018889 0.00922,0.00922 c 0.00234,0.00234 0.00458,0.00478 0.00676,0.00727 0.00218,0.00249 0.00439,0.00504 0.00724,0.00673 0.00288,0.00171 0.00624,0.0024 0.00928,0.00382 0.00152,7.105e-4 0.00296,0.00162 0.0041,0.00284 0.00114,0.00123 0.00196,0.0028 0.00208,0.00447 6.2e-5,8.212e-4 0,0.00165 0,0.00247 v 0.00292 c 0,0.00622 -2.77e-4,0.012448 0,0.018664 5.347e-4,0.011996 0.0038,0.023673 0.00648,0.035379 0.00268,0.011706 0.00478,0.02381 0.00296,0.03568 -0.00152,0.0099 -0.00568,0.019161 -0.00944,0.028446 -0.00749,0.018522 -0.013469,0.037622 -0.018945,0.056836 -0.0085,0.029839 -0.015819,0.060001 -0.023724,0.090004 -0.00586,0.022257 -0.012056,0.044432 -0.018945,0.066393 -0.00299,0.00952 -0.00611,0.019005 -0.0095,0.02839 -0.00362,0.010004 -0.00764,0.020049 -0.014167,0.028446 -0.00282,0.00362 -0.00607,0.00689 -0.0088,0.010572 -0.00273,0.00368 -0.00498,0.00791 -0.00537,0.012477 -2.113e-4,0.0025 0,0.00502 0,0.00753 v 0.018777 c 0,4.821e-4 3.23e-5,9.634e-4 8.45e-5,0.00144 2.61e-5,2.397e-4 5.11e-5,4.801e-4 4.75e-5,7.211e-4 -3.6e-6,2.41e-4 -3.74e-5,4.846e-4 -1.32e-4,7.063e-4 -1.004e-4,2.353e-4 -2.665e-4,4.38e-4 -4.554e-4,6.105e-4 -1.89e-4,1.725e-4 -4.014e-4,3.17e-4 -6.131e-4,4.608e-4 -2.116e-4,1.437e-4 -4.242e-4,2.879e-4 -6.136e-4,4.599e-4 -1.894e-4,1.72e-4 -3.562e-4,3.74e-4 -4.579e-4,6.088e-4 -9.75e-5,2.251e-4 -1.323e-4,4.731e-4 -1.361e-4,7.183e-4 -3.7e-6,2.453e-4 2.22e-5,4.899e-4 4.9e-5,7.337e-4 5.38e-5,4.876e-4 8.71e-5,9.774e-4 8.71e-5,0.00147 v 0.00691 0.01754 0.00714 c 0,9.002e-4 -6.68e-5,0.0018 0,0.0027 1.206e-4,0.00162 8.439e-4,0.00319 0.002,0.00434 0.00115,0.00115 0.00273,0.00186 0.00435,0.00196 -0.045427,0.014094 -0.09322,0.020531 -0.1407567,0.018958 -0.072266,-0.00239 -0.1424792,-0.022996 -0.2132334,-0.037891 -0.047009,-0.0099 -0.09451,-0.017306 -0.142118,-0.023724 -0.044277,-0.00597 -0.088693,-0.011087 -0.1326736,-0.018945 -0.026847,-0.0048 -0.053528,-0.010613 -0.08056,-0.014223 -0.04705,-0.00628 -0.094719,-0.00583 -0.1421743,-0.00472 -0.022112,5.15e-4 -0.04425,0.00117 -0.066337,0 -0.02857,-0.00151 -0.05688,-0.00606 -0.085282,-0.0095 -0.031521,-0.00382 -0.063188,-0.00629 -0.094783,-0.00944 -0.031597,-0.00315 -0.063129,-0.00699 -0.094783,-0.0095 -0.040967,-0.00325 -0.082079,-0.00427 -0.1231728,-0.00472 -0.053751,-5.885e-4 -0.1075913,-1.985e-4 -0.1611196,0.00472 -0.08461,0.00777 -0.1677123,0.026784 -0.2511802,0.042669 -0.025248,0.0048 -0.05055,0.00933 -0.075781,0.014223 -0.022203,0.00431 -0.044354,0.00891 -0.066337,0.014223 -0.023521,0.00569 -0.046994,0.012221 -0.071115,0.014167 -0.025734,0.00208 -0.05157,-0.00112 -0.077187,-0.00433 -0.037908,-0.00475 -0.075811,-0.00954 -0.1137282,-0.014223 C 5.3037657,8.489261 5.180656,8.4752426 5.0571098,8.4665458 c -0.036287,-0.00255 -0.072629,-0.00465 -0.109006,-0.00472 -0.06326,-1.218e-4 -0.1263495,0.00588 -0.1895095,0.00944 -0.077298,0.00436 -0.1547581,0.00478 -0.2321787,0.00478 H 4.4410776 4.152063 4.062002 4.024111 c -0.011063,0 -0.022174,-0.00123 -0.033168,0 -0.011446,0.00128 -0.022161,0.00605 -0.033168,0.00944 -0.015409,0.00475 -0.031488,0.00683 -0.047391,0.0095 -0.015887,0.00267 -0.031668,0.00593 -0.047391,0.00944 -0.039632,0.00884 -0.078904,0.019225 -0.1184505,0.028446 -0.029648,0.00691 -0.059636,0.013196 -0.090061,0.014223 -0.015789,5.327e-4 -0.031593,0 -0.047391,0 h -0.071059 c -0.015801,0 -0.031633,-0.00116 -0.047391,0 -0.014262,0.00105 -0.028312,0.00463 -0.042613,0.00472 -0.012764,7.73e-5 -0.025355,-0.00263 -0.037947,-0.00472 -0.02693,-0.00447 -0.054472,-0.00618 -0.08056,-0.014223 -0.00618,-0.0019 -0.012332,-0.00417 -0.018777,-0.00472 -0.0063,-5.335e-4 -0.012597,6.02e-4 -0.018878,0.0013 -0.00628,6.99e-4 -0.01282,9.321e-4 -0.018732,-0.0013 -0.00586,-0.00222 -0.010564,-0.00664 -0.015439,-0.010579 -0.00244,-0.00197 -0.00497,-0.00385 -0.00775,-0.0053 -0.00278,-0.00144 -0.00584,-0.00245 -0.00897,-0.00256 -0.00112,-4.24e-5 -0.00225,0 -0.00337,0 h -0.00697 -0.014167 c -6.557e-4,0 -0.00132,-1.35e-5 -0.00196,-1.387e-4 -6.437e-4,-1.251e-4 -0.00126,-3.582e-4 -0.00185,-6.61e-4 -5.815e-4,-3.029e-4 -0.00113,-6.719e-4 -0.00169,-0.001 -5.653e-4,-3.324e-4 -0.00117,-6.3e-4 -0.00182,-7.26e-4 -3.994e-4,-5.91e-5 -8.057e-4,-4.2e-5 -0.00121,-2.59e-5 -4.035e-4,1.6e-5 -8.071e-4,2.59e-5 -0.00121,2.59e-5 h -0.00382 -0.024286 -0.00753 c -0.0025,0 -0.00501,3.412e-4 -0.00748,0 -0.00227,-3.133e-4 -0.00436,-0.00137 -0.00641,-0.00239 -0.00205,-0.00102 -0.00418,-0.00202 -0.00646,-0.00222 -0.00144,-1.232e-4 -0.00289,0 -0.00433,0 h -0.010625 -0.033112 -0.098325"
       id="path684"
       inkscape:path-effect="#path-effect686"
       inkscape:original-d="m 7.6561061,3.0531778 c 0,0.085563 0,0.1711263 0,0.2566895 0,0.077393 -0.00287,0.1548389 0,0.2321787 0.00188,0.050745 0.012016,0.1009429 0.014223,0.1516751 6.97e-5,0.0016 -6.78e-5,0.3412783 0,0.3459069 0.00209,0.1426212 0.0058,0.1796265 0.018945,0.3269615 0.00268,0.030047 0.00582,0.060057 0.00944,0.090004 0.00332,0.027418 0.012301,0.078141 0.014223,0.1090059 6.872e-4,0.011035 0,0.022112 0,0.033168 0,0.018945 0,0.037891 0,0.056836 0,0.05054 0,0.1010792 0,0.1516188 0,0.058448 0,0.1168952 0,0.1753427 0,0.011056 0,0.022112 0,0.033168 0,0.017371 5.965e-4,0.034753 0,0.052114 -9.782e-4,0.028473 -0.00206,0.056973 -0.00472,0.085338 -0.00641,0.068393 -0.01108,0.053816 -0.014223,0.1137282 -7.442e-4,0.014185 0,0.028409 0,0.042613 0,0.034743 0,0.069485 0,0.1042274 0,0.00633 0,0.012668 0,0.019002 0,0.00632 4.83e-4,0.012649 0,0.018945 -0.00109,0.014249 -0.00295,0.028431 -0.00472,0.042613 -0.00138,0.011082 -0.00315,0.022112 -0.00472,0.033168 -0.00317,0.011056 -0.00775,0.021802 -0.0095,0.033168 -0.00877,0.056888 0.010445,4.1e-6 -0.00472,0.056892 -0.012204,0.045776 -0.01502,0.031663 -0.018945,0.071059 -6.262e-4,0.00628 0,0.01263 0,0.018945 0,0.00632 0,0.01263 0,0.018945 0,0.024792 0,0.049584 0,0.074376 0,0.097931 0,0.1958621 0,0.2937932 0,0.09319 0,0.18638 0,0.2795701 0,0.02987 0,0.05974 0,0.089611 0,0.010625 0,0.02125 0,0.031875 0,0.00632 -6.262e-4,0.012661 0,0.018945 9.53e-4,0.00956 0.00377,0.018882 0.00472,0.028446 6.261e-4,0.00628 -6.262e-4,0.012661 0,0.018945 9.53e-4,0.00956 0.00327,0.018945 0.00472,0.028446 0.00169,0.011039 0.00349,0.022069 0.00472,0.033168 0.019688,0.1767244 -0.023204,-0.1553112 0.023724,0.1658419 0.00391,0.026753 0.00599,0.053745 0.00944,0.08056 0.00286,0.022154 0.00583,0.044302 0.0095,0.066337 0.00265,0.015889 0.00767,0.031381 0.00944,0.047391 0.00139,0.012554 -6.359e-4,0.025277 0,0.037891 7.645e-4,0.015163 0.005,0.069069 0.0095,0.090061 0.00241,0.011245 0.00654,0.022056 0.0095,0.033168 0.015991,0.059977 0.00215,0.016031 0.018945,0.066337 0.00474,0.014204 0.012627,0.027724 0.014223,0.042613 0.0032,0.029849 0.00289,0.06018 0,0.090061 -2.798e-4,0.00289 -0.00581,0 -0.00871,0 -0.0072,0 -0.0161,-8.207e-4 -0.022037,0.00472 -0.020425,0.019067 -0.042756,0.03748 -0.056836,0.061614 -0.019653,0.033689 -0.030778,0.071804 -0.042669,0.1089497 -0.021899,0.068407 -0.042803,0.1642651 -0.052114,0.2369572 -0.0058,0.045314 -0.00472,0.083331 -0.00472,0.1279512 0,0.017371 0,0.034743 0,0.052114 0,0.00789 0,0.015778 0,0.023668 0,0.00632 -8.72e-4,0.012691 0,0.018945 0.00194,0.013908 0.00483,0.013993 0.013942,0.023105 0.0063,0.0063 0.012593,0.012593 0.018889,0.018889 0.00307,0.00307 0.00615,0.00615 0.00922,0.00922 0.00467,0.00467 0.00887,0.00985 0.013998,0.013998 0.011953,0.00967 0.00595,-0.00183 0.01546,0.011131 4.876e-4,6.649e-4 0,0.00165 0,0.00247 0,9.744e-4 0,0.00195 0,0.00292 0,0.00622 -9.477e-4,0.012515 0,0.018664 0.00441,0.028599 0.014064,0.043231 0.00944,0.071059 -0.00164,0.00986 -0.00629,0.018968 -0.00944,0.028446 -8.395e-4,0.00252 -0.018202,0.054307 -0.018945,0.056836 -0.00951,0.032373 -0.01573,0.058007 -0.023724,0.090004 -0.011982,0.047962 -0.00522,0.025343 -0.018945,0.066393 -0.00316,0.00946 -0.00566,0.019178 -0.0095,0.02839 -0.00407,0.00978 -0.00903,0.019183 -0.014167,0.028446 -0.00148,0.00267 -0.012596,0.01754 -0.014167,0.023049 -6.887e-4,0.00241 0,0.00502 0,0.00753 0,0.00626 0,0.012518 0,0.018777 0,9.557e-4 3.753e-4,0.00199 0,0.00287 -3.954e-4,9.261e-4 -0.00174,0.00121 -0.00214,0.00214 -3.791e-4,8.977e-4 0,0.00195 0,0.00292 0,0.0023 0,0.00461 0,0.00691 0,0.00585 0,0.011693 0,0.01754 0,0.00238 0,0.00476 0,0.00714 0,8.995e-4 -5.189e-4,0.00196 0,0.0027 0.00172,0.00244 0.00423,0.0042 0.00635,0.0063 -0.046919,0.00632 -0.093482,0.021486 -0.1407567,0.018958 -0.072088,-0.00386 -0.1421034,-0.025557 -0.2132334,-0.037891 -0.047322,-0.00821 -0.094659,-0.016354 -0.142118,-0.023724 -0.044144,-0.00685 -0.088531,-0.012079 -0.1326736,-0.018945 -0.026944,-0.00419 -0.053467,-0.011129 -0.08056,-0.014223 -0.050518,-0.00577 -0.092583,-0.00472 -0.1421743,-0.00472 -0.022112,0 -0.044268,0.00138 -0.066337,0 -0.028547,-0.00179 -0.056836,-0.00651 -0.085282,-0.0095 -0.031576,-0.00332 -0.06319,-0.00629 -0.094783,-0.00944 -0.031595,-0.00316 -0.063098,-0.00743 -0.094783,-0.0095 -0.041,-0.00268 -0.082096,-0.00377 -0.1231728,-0.00472 -0.049161,-0.00114 -0.1121506,-4.299e-4 -0.1611196,0.00472 -0.081474,0.00857 -0.1724355,0.027897 -0.2511802,0.042669 -0.025261,0.00474 -0.05058,0.00918 -0.075781,0.014223 -0.022175,0.00444 -0.044237,0.00942 -0.066337,0.014223 -0.011397,0.00247 -0.055125,0.013029 -0.071115,0.014167 -0.031992,0.00228 -0.04524,-9.932e-4 -0.077187,-0.00433 -0.1225074,-0.012791 0.042741,0.00577 -0.1137282,-0.014223 -0.1443062,-0.018434 -0.2167057,-0.026663 -0.3695745,-0.037891 -0.036272,-0.00266 -0.072646,-0.00388 -0.109006,-0.00472 -0.1489898,-0.00345 -0.040771,3.33e-4 -0.1895095,0.00944 -0.095913,0.00588 -0.1419511,0.00478 -0.2321787,0.00478 -0.028446,0 -0.056892,0 -0.085338,0 -0.096338,0 -0.1926764,0 -0.2890146,0 -0.03002,0 -0.06004,0 -0.090061,0 -0.01263,0 -0.02526,0 -0.037891,0 -0.011056,0 -0.022223,-0.00156 -0.033168,0 -0.011381,0.00162 -0.021978,0.00681 -0.033168,0.00944 -0.015684,0.00369 -0.031592,0.00634 -0.047391,0.0095 -0.015795,0.00316 -0.031727,0.00569 -0.047391,0.00944 -0.1461489,0.035029 -0.0079,0.00628 -0.1184505,0.028446 -0.035431,0.0071 -0.054463,0.012356 -0.090061,0.014223 -0.015776,8.271e-4 -0.031594,0 -0.047391,0 -0.023686,0 -0.047373,0 -0.071059,0 -0.015797,0 -0.031616,-8.277e-4 -0.047391,0 -0.014272,7.488e-4 -0.028322,0.00472 -0.042613,0.00472 -0.012746,0 -0.025311,-0.00304 -0.037947,-0.00472 -0.036271,-0.00482 -0.040754,-0.00567 -0.08056,-0.014223 -0.00631,-0.00136 -0.012374,-0.00391 -0.018777,-0.00472 -3.743e-4,-4.72e-5 -0.037419,4.8e-5 -0.03761,0 -0.015175,-0.00381 -0.019509,-0.011622 -0.032157,-0.018439 -9.897e-4,-5.335e-4 -0.00225,0 -0.00337,0 -0.00232,0 -0.00465,0 -0.00697,0 -0.00472,0 -0.00944,0 -0.014167,0 -0.00514,0 0.00119,3.239e-4 -0.00731,-0.00253 -7.639e-4,-2.565e-4 -0.00161,0 -0.00242,0 -0.00127,0 -0.00255,0 -0.00382,0 -0.0081,0 -0.016191,0 -0.024286,0 -0.00251,0 -0.00502,0 -0.00753,0 -0.00249,0 -0.00505,5.506e-4 -0.00748,0 -0.00445,-0.00101 -0.00847,-0.00343 -0.012874,-0.00461 -0.00139,-3.735e-4 -0.00289,0 -0.00433,0 -0.00354,0 -0.00708,0 -0.010625,0 -0.011037,0 -0.022075,0 -0.033112,0 -0.032775,0 -0.06555,0 -0.098325,0" />
    <rect
       style="fill:#808080"
       id="rect821"
       width="5"
       height="5.5225358"
       x="7.995604"
       y="3.0220332" />
    <rect
       style="fill:#808080"
       id="rect821-3"
       width="5"
       height="5.5225358"
       x="2.9971819"
       y="8.5402689" />
    <path
       style="fill:#ffffff;stroke-width:0.0143917"
       d="m 3.0019574,13.107245 c 0.00108,-0.797146 0.00428,-0.942596 0.019548,-0.887241 0.2115417,0.767002 1.5001827,1.417236 3.3180411,1.674248 0.4633201,0.0655 1.0302525,0.108693 1.4283768,0.10881 0.2170525,5.8e-5 0.2266693,0.0013 0.2266693,0.02885 0,0.02867 -0.00959,0.02878 -2.4969608,0.02878 H 3.0006705 Z"
       id="path1101" />
    <path
       style="fill:#ffffff;stroke-width:0.0143917"
       d="m 3.0056992,13.931171 c 0,-0.06728 0.00248,-0.09481 0.00551,-0.06117 0.00303,0.03364 0.00303,0.08869 0,0.122329 -0.00303,0.03364 -0.00551,0.0061 -0.00551,-0.06116 z"
       id="path1103" />
    <path
       id="path1105"
       style="fill:#ffffff;stroke-width:0.0143917"
       d="M 3.015625 12.240234 L 3.015625 13.019531 C 3.015445 13.447728 3.0110894 13.858021 3.0058594 13.931641 L 2.9960938 14.064453 L 5.4726562 14.056641 C 6.8344474 14.052561 7.9559759 14.044009 7.9667969 14.037109 C 7.9989513 14.016709 7.8787562 14.005106 7.6269531 14.003906 C 7.1301728 14.001572 6.3647246 13.92112 5.8222656 13.814453 C 4.3365358 13.522305 3.3172982 12.97497 3.0488281 12.322266 L 3.015625 12.240234 z " />
    <path
       style="fill:#ffffff;stroke-width:0.00390625"
       d="m 2.9993012,12.599609 c -1.4e-4,-0.313375 0.00114,-0.526797 0.00307,-0.509765 0.00182,0.01611 0.00707,0.0484 0.011675,0.07175 0.00673,0.03412 0.00738,0.04306 0.00332,0.04557 -0.00278,0.0017 -0.00665,0.01425 -0.00861,0.02786 -0.00196,0.01361 -0.00483,0.222495 -0.00639,0.464194 l -0.00283,0.439453 z"
       id="path1111" />
    <path
       style="fill:#ffffff;stroke-width:0.00390625"
       d="m 3.0030614,12.234375 -3.483e-4,-0.123047 0.00791,0.04297 c 0.0067,0.03641 0.00714,0.04476 0.00288,0.05469 -0.00304,0.0071 -0.00602,0.03866 -0.00756,0.08008 -0.00225,0.06063 -0.00258,0.05444 -0.00288,-0.05469 z"
       id="path1113" />
    <path
       style="fill:#ffffff;stroke-width:0.00390625"
       d="m 3.0009874,13.740652 c 0.00177,-0.575585 0.00891,-1.484292 0.011831,-1.506277 l 0.00285,-0.02148 0.018311,0.0532 c 0.061407,0.178403 0.155408,0.320632 0.321188,0.485977 0.099508,0.09925 0.1970394,0.178923 0.328422,0.268299 0.6818937,0.463873 1.8035099,0.7997 3.1015624,0.928649 0.3609547,0.03586 0.6888793,0.0545 0.96875,0.05507 0.075195,1.53e-4 0.1568352,0.0017 0.1814223,0.0035 0.039663,0.0029 0.045513,0.0042 0.051886,0.01208 0.00952,0.01176 0.00733,0.01647 -0.010371,0.02237 -0.041939,0.01397 -0.3078004,0.0154 -3.3284059,0.01796 L 3,14.061381 Z"
       id="path1115" />
    <path
       style="fill:#ffffff;stroke-width:0.00390625"
       d="m 3.0009959,13.734797 c 0.00175,-0.57396 0.00888,-1.478206 0.011826,-1.500422 l 0.00285,-0.02148 0.018556,0.05392 c 0.030657,0.08908 0.068018,0.16461 0.1222043,0.247063 0.2635814,0.401078 0.8406962,0.764241 1.6360271,1.029509 0.5846359,0.194995 1.2673186,0.333943 1.9926957,0.405578 0.3676614,0.03631 0.6882958,0.05455 0.96875,0.05512 0.075195,1.53e-4 0.1568352,0.0017 0.1814223,0.0035 0.039663,0.0029 0.045513,0.0042 0.051886,0.01208 0.00952,0.01176 0.00733,0.01647 -0.010371,0.02237 -0.041937,0.01397 -0.3075899,0.0154 -3.3264528,0.01797 L 3,14.061391 Z"
       id="path1117" />
    <path
       style="fill:#ffffff;stroke-width:0.00390625"
       d="m 3.0009943,13.729025 c 0.00176,-0.590299 0.00889,-1.472551 0.012077,-1.49465 0.0017,-0.01182 0.0041,-0.01885 0.00534,-0.01563 0.00123,0.0032 0.00958,0.02783 0.018539,0.05469 0.021983,0.06587 0.077704,0.177697 0.1206735,0.242187 0.3161607,0.474508 1.0484162,0.884587 2.0648113,1.15634 0.6563921,0.175499 1.3965898,0.284544 2.2013956,0.324309 0.046191,0.0023 0.1859375,0.0058 0.3105469,0.0077 0.1246094,0.002 0.2312914,0.0047 0.2370711,0.0061 0.013084,0.0031 0.024373,0.01507 0.021416,0.02278 -0.00381,0.0099 -0.030599,0.01409 -0.1166984,0.0181 -0.1017325,0.0047 -0.9507227,0.0072 -3.1769454,0.0091 L 3,14.061567 Z"
       id="path1119" />
    <path
       style="fill:#ffffff;stroke-width:0.00390625"
       d="m 3.0009974,13.715519 c 0.00168,-0.583215 0.00882,-1.458428 0.012082,-1.481144 0.00334,-0.02328 0.00365,-0.02296 0.016389,0.01758 0.1036484,0.329705 0.417475,0.649939 0.9008143,0.919206 0.8276483,0.461081 2.0839771,0.757455 3.4974511,0.825067 0.04834,0.0023 0.1880859,0.0058 0.3105468,0.0078 0.122461,0.002 0.2273852,0.0047 0.2331649,0.0061 0.013077,0.003 0.024374,0.01505 0.021416,0.02276 -0.00122,0.0032 -0.00924,0.0077 -0.017811,0.01 -0.04882,0.01315 -0.3464801,0.01477 -3.1820825,0.01739 L 3,14.061897 Z"
       id="path1121" />
    <path
       style="fill:#ffffff;stroke-width:0.00390625"
       d="m 2.999032,13.857422 c 4.33e-5,-0.0086 8.433e-4,-0.01165 0.00178,-0.0068 9.344e-4,0.0049 8.989e-4,0.01189 -7.88e-5,0.01563 -9.777e-4,0.0037 -0.00174,-2.4e-4 -0.0017,-0.0088 z"
       id="path1123" />
    <path
       style="fill:#ffffff;stroke-width:0.00390625"
       d=""
       id="path1125" />
    <path
       style="fill:none;stroke-width:0.00390625"
       d=""
       id="path1127" />
    <path
       style="fill:none;stroke-width:0.0209871"
       d="M 7.3734825,13.414773 C 5.8924517,13.337163 4.5930813,13.007337 3.7742006,12.501147 3.4848835,12.322306 3.1932374,12.02916 3.0915048,11.81494 2.9069116,11.426239 3.0017075,11.04863 3.3749554,10.685847 3.9550079,10.122056 5.1782679,9.687644 6.6494287,9.522994 6.9902706,9.484844 7.5562939,9.448344 7.8089641,9.448204 l 0.1836368,-9.7e-5 V 8.7240538 8 h 2.4748351 2.474835 l 0.0071,1.799641 c 0.0066,1.683038 0.0047,1.80712 -0.03045,1.91507 -0.242355,0.745258 -1.630229,1.395485 -3.467715,1.624644 -0.6077846,0.0758 -1.4718909,0.107165 -2.0777195,0.07542 z"
       id="path1198" />
    <path
       style="fill:none;stroke-width:0.0103543"
       d="m 3.0027769,13.380371 c 2.28e-5,-0.652037 0.00856,-1.184821 0.018454,-1.151915 0.2328039,0.774132 1.5342077,1.422045 3.3570312,1.671321 0.4254499,0.05818 0.759925,0.08528 1.2373413,0.10024 0.1993207,0.0062 0.3667501,0.01549 0.3720653,0.02055 0.00532,0.0051 0.0061,0.01276 0.00174,0.01713 -0.01463,0.01466 -0.8574554,0.02107 -2.9287347,0.02227 l -2.0579213,0.0012 z"
       id="path329" />
    <path
       style="fill:none;stroke-width:0.0103543"
       d="m 3.0027769,13.380371 c 2.28e-5,-0.652037 0.00856,-1.184821 0.018454,-1.151915 0.2328039,0.774132 1.5342077,1.422045 3.3570312,1.671321 0.4254499,0.05818 0.759925,0.08528 1.2373413,0.10024 0.1993207,0.0062 0.3667501,0.01549 0.3720653,0.02055 0.00532,0.0051 0.0061,0.01276 0.00174,0.01713 -0.01463,0.01466 -0.8574554,0.02107 -2.9287347,0.02227 l -2.0579213,0.0012 z"
       id="path331" />
    <path
       style="fill:none;stroke-width:0.0103543"
       d="m 3.0027769,13.380371 c 2.28e-5,-0.652037 0.00856,-1.184821 0.018454,-1.151915 0.2328039,0.774132 1.5342077,1.422045 3.3570312,1.671321 0.4254499,0.05818 0.759925,0.08528 1.2373413,0.10024 0.1993207,0.0062 0.3667501,0.01549 0.3720653,0.02055 0.00532,0.0051 0.0061,0.01276 0.00174,0.01713 -0.01463,0.01466 -0.8574554,0.02107 -2.9287347,0.02227 l -2.0579213,0.0012 z"
       id="path333" />
    <path
       style="fill:none;stroke-width:0.0103543"
       d="m 3.0027769,13.380371 c 2.28e-5,-0.652037 0.00856,-1.184821 0.018454,-1.151915 0.2328039,0.774132 1.5342077,1.422045 3.3570312,1.671321 0.4254499,0.05818 0.759925,0.08528 1.2373413,0.10024 0.1993207,0.0062 0.3667501,0.01549 0.3720653,0.02055 0.00532,0.0051 0.0061,0.01276 0.00174,0.01713 -0.01463,0.01466 -0.8574554,0.02107 -2.9287347,0.02227 l -2.0579213,0.0012 z"
       id="path335" />
    <path
       style="fill:none;stroke-width:0.00390625"
       d="m 3.002458,13.139535 c 4.841e-4,-0.507506 0.0012,-0.943832 0.00159,-0.969613 l 7.139e-4,-0.04687 0.00695,0.03906 c 0.00443,0.0249 0.00562,0.04072 0.00327,0.04362 -0.0075,0.0093 -0.010926,0.07707 -0.010342,0.204429 l 6.002e-4,0.13086 0.00266,-0.150391 c 0.00146,-0.08272 0.00402,-0.156488 0.00569,-0.16394 0.00287,-0.01283 0.004,-0.01076 0.021303,0.03906 0.061726,0.177688 0.1546352,0.318772 0.3164515,0.480535 0.079339,0.07931 0.1421279,0.133878 0.228729,0.198769 0.2624342,0.196646 0.598446,0.371959 1.0025613,0.523082 0.7413944,0.277253 1.6592512,0.455498 2.6673606,0.517994 0.1735422,0.01076 0.2707309,0.01421 0.493093,0.0175 0.241255,0.0036 0.2490945,0.0044 0.2490945,0.02532 0,0.0081 -0.00266,0.01053 -0.015384,0.01396 -0.048797,0.01314 -0.3458578,0.01482 -3.0980845,0.01752 l -1.8771409,0.0018 z"
       id="path337" />
    <path
       style="fill:none;stroke-width:0.00390625"
       d="m 3.002458,13.139535 c 4.841e-4,-0.507506 0.0012,-0.943832 0.00159,-0.969613 l 7.139e-4,-0.04687 0.00695,0.03906 c 0.00443,0.0249 0.00562,0.04072 0.00327,0.04362 -0.0075,0.0093 -0.010926,0.07707 -0.010342,0.204429 l 6.002e-4,0.13086 0.00266,-0.150391 c 0.00146,-0.08272 0.00402,-0.156488 0.00569,-0.16394 0.00287,-0.01283 0.004,-0.01076 0.021303,0.03906 0.061726,0.177688 0.1546352,0.318772 0.3164515,0.480535 0.079339,0.07931 0.1421279,0.133878 0.228729,0.198769 0.2624342,0.196646 0.598446,0.371959 1.0025613,0.523082 0.7413944,0.277253 1.6592512,0.455498 2.6673606,0.517994 0.1735422,0.01076 0.2707309,0.01421 0.493093,0.0175 0.241255,0.0036 0.2490945,0.0044 0.2490945,0.02532 0,0.0081 -0.00266,0.01053 -0.015384,0.01396 -0.048797,0.01314 -0.3458578,0.01482 -3.0980845,0.01752 l -1.8771409,0.0018 z"
       id="path339" />
    <path
       style="fill:none;stroke-width:0.00390625"
       d="m 3.002458,13.139535 c 4.841e-4,-0.507506 0.0012,-0.943832 0.00159,-0.969613 l 7.139e-4,-0.04687 0.00695,0.03906 c 0.00443,0.0249 0.00562,0.04072 0.00327,0.04362 -0.0075,0.0093 -0.010926,0.07707 -0.010342,0.204429 l 6.002e-4,0.13086 0.00266,-0.150391 c 0.00146,-0.08272 0.00402,-0.156488 0.00569,-0.16394 0.00287,-0.01283 0.004,-0.01076 0.021303,0.03906 0.061726,0.177688 0.1546352,0.318772 0.3164515,0.480535 0.079339,0.07931 0.1421279,0.133878 0.228729,0.198769 0.2624342,0.196646 0.598446,0.371959 1.0025613,0.523082 0.7413944,0.277253 1.6592512,0.455498 2.6673606,0.517994 0.1735422,0.01076 0.2707309,0.01421 0.493093,0.0175 0.241255,0.0036 0.2490945,0.0044 0.2490945,0.02532 0,0.0081 -0.00266,0.01053 -0.015384,0.01396 -0.048797,0.01314 -0.3458578,0.01482 -3.0980845,0.01752 l -1.8771409,0.0018 z"
       id="path341" />
    <path
       style="fill:none;stroke-width:0.00390625"
       d="m 3.002458,13.139535 c 4.841e-4,-0.507506 0.0012,-0.943832 0.00159,-0.969613 l 7.139e-4,-0.04687 0.00695,0.03906 c 0.00443,0.0249 0.00562,0.04072 0.00327,0.04362 -0.0075,0.0093 -0.010926,0.07707 -0.010342,0.204429 l 6.002e-4,0.13086 0.00266,-0.150391 c 0.00146,-0.08272 0.00402,-0.156488 0.00569,-0.16394 0.00287,-0.01283 0.004,-0.01076 0.021303,0.03906 0.061726,0.177688 0.1546352,0.318772 0.3164515,0.480535 0.079339,0.07931 0.1421279,0.133878 0.228729,0.198769 0.2624342,0.196646 0.598446,0.371959 1.0025613,0.523082 0.7413944,0.277253 1.6592512,0.455498 2.6673606,0.517994 0.1735422,0.01076 0.2707309,0.01421 0.493093,0.0175 0.241255,0.0036 0.2490945,0.0044 0.2490945,0.02532 0,0.0081 -0.00266,0.01053 -0.015384,0.01396 -0.048797,0.01314 -0.3458578,0.01482 -3.0980845,0.01752 l -1.8771409,0.0018 z"
       id="path343" />
    <path
       style="fill:none;stroke-width:0.00390625"
       d="m 3.002458,13.139535 c 4.841e-4,-0.507506 0.0012,-0.943832 0.00159,-0.969613 l 7.139e-4,-0.04687 0.00695,0.03906 c 0.00443,0.0249 0.00562,0.04072 0.00327,0.04362 -0.0075,0.0093 -0.010926,0.07707 -0.010342,0.204429 l 6.002e-4,0.13086 0.00266,-0.150391 c 0.00146,-0.08272 0.00402,-0.156488 0.00569,-0.16394 0.00287,-0.01283 0.004,-0.01076 0.021303,0.03906 0.061726,0.177688 0.1546352,0.318772 0.3164515,0.480535 0.079339,0.07931 0.1421279,0.133878 0.228729,0.198769 0.2624342,0.196646 0.598446,0.371959 1.0025613,0.523082 0.7413944,0.277253 1.6592512,0.455498 2.6673606,0.517994 0.1735422,0.01076 0.2707309,0.01421 0.493093,0.0175 0.241255,0.0036 0.2490945,0.0044 0.2490945,0.02532 0,0.0081 -0.00266,0.01053 -0.015384,0.01396 -0.048797,0.01314 -0.3458578,0.01482 -3.0980845,0.01752 l -1.8771409,0.0018 z"
       id="path345" />
    <path
       style="fill:none;stroke-width:0.0120459"
       d="M 7.8117824,14.001156 C 6.3590713,13.975565 4.997113,13.69985 4.1016823,13.250081 3.5577872,12.976886 3.2006532,12.657449 3.0645029,12.322381 2.9987461,12.160553 2.9998975,12.19653 2.9996573,10.296254 l -2.22e-4,-1.7556931 h 2.4935065 2.4935065 v 2.7344251 c 0,1.503934 -0.00136,2.733236 -0.00301,2.731783 -0.00166,-0.0015 -0.078901,-0.004 -0.1716545,-0.0056 z"
       id="path380" />
    <path
       style="fill:none;stroke-width:0.0120459"
       d="M 7.8117824,14.001156 C 6.3590713,13.975565 4.997113,13.69985 4.1016823,13.250081 3.5577872,12.976886 3.2006532,12.657449 3.0645029,12.322381 2.9987461,12.160553 2.9998975,12.19653 2.9996573,10.296254 l -2.22e-4,-1.7556931 h 2.4935065 2.4935065 v 2.7344251 c 0,1.503934 -0.00136,2.733236 -0.00301,2.731783 -0.00166,-0.0015 -0.078901,-0.004 -0.1716545,-0.0056 z"
       id="path382" />
    <path
       style="fill:none;stroke-width:0.0120459"
       d="m 2.9994353,13.686148 c 0,-0.672641 0.015182,-1.466879 0.02743,-1.434975 0.03803,0.09906 0.1241371,0.258276 0.178903,0.330796 0.5096365,0.674848 1.8859395,1.19896 3.5881333,1.366404 0.3127064,0.03076 0.5587473,0.04583 0.9124788,0.05589 0.2091711,0.006 0.2800677,0.01171 0.2800677,0.02277 0,0.01047 -0.042914,0.01711 -0.1464423,0.02268 -0.080543,0.0043 -1.2026212,0.0079 -2.4935065,0.0079 h -2.347064 z"
       id="path384" />
    <path
       style="fill:none;stroke-width:0.0120459"
       d="m 2.9994353,13.686148 c 0,-0.672641 0.015182,-1.466879 0.02743,-1.434975 0.03803,0.09906 0.1241371,0.258276 0.178903,0.330796 0.5096365,0.674848 1.8859395,1.19896 3.5881333,1.366404 0.3127064,0.03076 0.5587473,0.04583 0.9124788,0.05589 0.2091711,0.006 0.2800677,0.01171 0.2800677,0.02277 0,0.01047 -0.042914,0.01711 -0.1464423,0.02268 -0.080543,0.0043 -1.2026212,0.0079 -2.4935065,0.0079 h -2.347064 z"
       id="path386" />
    <path
       style="fill:none;stroke-width:0.0120459"
       d="m 2.9994353,13.686148 c 0,-0.672641 0.015182,-1.466879 0.02743,-1.434975 0.03803,0.09906 0.1241371,0.258276 0.178903,0.330796 0.5096365,0.674848 1.8859395,1.19896 3.5881333,1.366404 0.3127064,0.03076 0.5587473,0.04583 0.9124788,0.05589 0.2091711,0.006 0.2800677,0.01171 0.2800677,0.02277 0,0.01047 -0.042914,0.01711 -0.1464423,0.02268 -0.080543,0.0043 -1.2026212,0.0079 -2.4935065,0.0079 h -2.347064 z"
       id="path388" />
    <path
       style="fill:none;stroke-width:0.0120459"
       d="m 2.9994353,13.686148 c 0,-0.672641 0.015182,-1.466879 0.02743,-1.434975 0.03803,0.09906 0.1241371,0.258276 0.178903,0.330796 0.5096365,0.674848 1.8859395,1.19896 3.5881333,1.366404 0.3127064,0.03076 0.5587473,0.04583 0.9124788,0.05589 0.2091711,0.006 0.2800677,0.01171 0.2800677,0.02277 0,0.01047 -0.042914,0.01711 -0.1464423,0.02268 -0.080543,0.0043 -1.2026212,0.0079 -2.4935065,0.0079 h -2.347064 z"
       id="path390" />
    <path
       style="fill:none;stroke-width:0.0120459"
       d="m 2.9994353,13.686148 c 0,-0.672641 0.015182,-1.466879 0.02743,-1.434975 0.03803,0.09906 0.1241371,0.258276 0.178903,0.330796 0.5096365,0.674848 1.8859395,1.19896 3.5881333,1.366404 0.3127064,0.03076 0.5587473,0.04583 0.9124788,0.05589 0.2091711,0.006 0.2800677,0.01171 0.2800677,0.02277 0,0.01047 -0.042914,0.01711 -0.1464423,0.02268 -0.080543,0.0043 -1.2026212,0.0079 -2.4935065,0.0079 h -2.347064 z"
       id="path392" />
    <path
       style="fill:none;stroke-width:0.0120459"
       d="m 2.9994353,13.686148 c 0,-0.672641 0.015182,-1.466879 0.02743,-1.434975 0.03803,0.09906 0.1241371,0.258276 0.178903,0.330796 0.5096365,0.674848 1.8859395,1.19896 3.5881333,1.366404 0.3127064,0.03076 0.5587473,0.04583 0.9124788,0.05589 0.2091711,0.006 0.2800677,0.01171 0.2800677,0.02277 0,0.01047 -0.042914,0.01711 -0.1464423,0.02268 -0.080543,0.0043 -1.2026212,0.0079 -2.4935065,0.0079 h -2.347064 z"
       id="path394" />
    <path
       style="fill:#ffffff;stroke-width:0.0120459"
       d="m 2.9994353,13.686148 c 0,-0.672641 0.015182,-1.466879 0.02743,-1.434975 0.03803,0.09906 0.1241371,0.258276 0.178903,0.330796 0.5096365,0.674848 1.8859395,1.19896 3.5881333,1.366404 0.3127064,0.03076 0.5587473,0.04583 0.9124788,0.05589 0.2091711,0.006 0.2800677,0.01171 0.2800677,0.02277 0,0.01047 -0.042914,0.01711 -0.1464423,0.02268 -0.080543,0.0043 -1.2026212,0.0079 -2.4935065,0.0079 h -2.347064 z"
       id="path396" />
    <path
       style="fill:#ffffff;stroke-width:0.0120459"
       d="M 7.6588394,13.996273 C 6.2750897,13.956127 5.0193928,13.696292 4.1377753,13.267678 3.6116524,13.011894 3.2707358,12.723505 3.1036748,12.392909 2.993047,12.173989 2.9999122,12.312368 2.9996573,10.296254 l -2.22e-4,-1.7556931 h 2.4935065 2.4935065 v 2.7344251 c 0,1.503934 -0.00136,2.733568 -0.00301,2.732521 -0.00166,-0.001 -0.1477252,-0.0061 -0.3245975,-0.01123 z"
       id="path467" />
    <path
       style="fill:#ffffff;stroke-width:0.0120459"
       d="M 7.9984943,5.8422737 V 3.1439864 h 2.4935067 2.493506 V 5.8422737 8.5405609 H 10.492001 7.9984943 Z"
       id="path469" />
    <path
       style="fill:#ffffff;stroke-width:0.0120459"
       d="m 7.9984943,3.0837568 v -0.06023 h 2.4935067 2.493506 v 0.06023 0.06023 H 10.492001 7.9984943 Z"
       id="path515" />
    <path
       style="fill:#ffffff;stroke-width:0.0120459"
       d="m 3.0011487,13.500471 c 9.424e-4,-0.306419 0.00501,-0.719152 0.00903,-0.917186 l 0.00732,-0.36006 0.040618,0.09947 c 0.2937371,0.719325 1.541365,1.320265 3.2511843,1.565986 0.4283407,0.06156 0.9972029,0.110277 1.247458,0.106836 0.1249674,-0.0017 0.1199622,-0.0025 -0.070222,-0.01102 C 6.0056739,13.918201 4.6881238,13.599639 3.8544646,13.106321 3.6567534,12.989325 3.4964968,12.865649 3.3602077,12.724882 3.2264371,12.586716 3.163178,12.49769 3.0893554,12.343703 c -0.048105,-0.100342 -0.05437,-0.12386 -0.064888,-0.243571 -0.0064,-0.07288 -0.015025,-0.903595 -0.019159,-1.846038 l -0.00752,-1.7135331 h 2.4943283 2.4943282 l -4.4e-6,0.9124788 c -2.4e-6,0.5018634 -0.00361,1.7294753 -0.00802,2.7280263 l -0.00801,1.815547 -0.1335239,0.0038 -0.1335239,0.0038 0.1415396,0.0026 c 0.1093739,0.002 0.1415396,0.0063 0.1415396,0.0188 0,0.01218 -0.033783,0.01817 -0.1355166,0.02404 -0.074534,0.0043 -1.1966121,0.0078 -2.4935065,0.0079 l -2.3579899,5.5e-5 z"
       id="path517" />
    <path
       style="fill:#ffffff;stroke-width:0.0120459"
       d="m 3.0011378,13.446264 c 9.364e-4,-0.336232 0.005,-0.749543 0.00903,-0.91847 l 0.00733,-0.307138 0.033349,0.08515 c 0.074113,0.189243 0.2483505,0.409929 0.4605344,0.583303 0.6133056,0.501127 1.7656489,0.885743 3.1198946,1.041322 0.2698899,0.03101 0.5946206,0.05521 0.801054,0.05971 0.2145186,0.0047 0.1952353,0.0023 -0.1385282,-0.01692 -1.3965072,-0.08051 -2.640141,-0.393975 -3.439337,-0.8669 C 3.6567534,12.989325 3.4964968,12.865649 3.3602077,12.724882 3.226798,12.587089 3.1635878,12.49825 3.0889943,12.343703 c -0.047918,-0.09928 -0.054805,-0.12449 -0.064894,-0.237548 -0.00621,-0.06957 -0.015049,-0.900283 -0.019646,-1.846038 l -0.00836,-1.7195561 h 2.4952622 2.4952622 l -0.00306,1.6171651 c -0.00168,0.889441 -0.00449,2.116995 -0.00623,2.727898 l -0.00318,1.110732 -0.093232,0.0041 -0.093232,0.0041 0.099379,0.0024 c 0.074211,0.0018 0.099379,0.0065 0.099379,0.01869 0,0.0119 -0.029581,0.01836 -0.1102638,0.02409 -0.060645,0.0043 -1.1827231,0.0078 -2.4935065,0.0078 H 2.9994353 Z"
       id="path519" />
    <path
       style="fill:#ffffff;stroke-width:0.0120459"
       d="m 2.9851072,12.012799 c -0.00206,-0.07785 -9.951e-4,-0.743234 0.00236,-1.478638 l 0.0061,-1.3370972 0.00293,1.4786372 c 0.00161,0.813251 5.508e-4,1.478637 -0.00236,1.478637 -0.00291,0 -0.00698,-0.06369 -0.00903,-0.141539 z"
       id="path521" />
    <path
       style="fill:#ffffff;stroke-width:0.0120459"
       d="m 2.9897378,11.835121 c 2.455e-4,-0.01987 0.00295,-0.02655 0.006,-0.01483 0.00305,0.01172 0.00285,0.02798 -4.463e-4,0.03614 -0.0033,0.0082 -0.0058,-0.0014 -0.00555,-0.02131 z"
       id="path523" />
    <path
       style="fill:#ffffff;stroke-width:0.0120459"
       d=""
       id="path525" />
    <path
       style="fill:#ffffff;stroke-width:0.0120459"
       d=""
       id="path527" />
    <path
       style="fill:#ffffff;stroke-width:0.0120459"
       d=""
       id="path529" />
    <path
       style="fill:#ffffff;stroke-width:0.0120459"
       d=""
       id="path531" />
    <path
       style="fill:#ffffff;stroke-width:0.0120459"
       d=""
       id="path533" />
    <path
       id="path658"
       style="display:none;fill:#008080;stroke-width:0.0120459"
       d="m 2.9960938,8.5410156 0.00781,1.7246094 c 0.00474,0.949065 0.013351,1.779453 0.019531,1.845703 0.00985,0.105557 0.019442,0.135092 0.066406,0.232422 0.074599,0.154595 0.1363103,0.243432 0.2695312,0.380859 0.1980843,0.204344 0.4146851,0.354653 0.7539062,0.521485 0.748589,0.368161 1.7114868,0.604853 2.8496094,0.703125 0.00259,2.24e-4 0.00522,-2.23e-4 0.00781,0 0.016154,1.42e-4 0.032675,-2.2e-4 0.048828,0 0.022313,3.04e-4 0.04409,1.39e-4 0.066406,0 0.00783,-1.1e-5 0.015607,1.74e-4 0.023437,0 0.00382,-1.62e-4 0.00792,2.87e-4 0.011719,0 0.00624,-5.16e-4 0.013261,-0.0021 0.019531,-0.002 0.00403,2.69e-4 0.00773,0.0013 0.011719,0.002 0.00278,3e-4 0.00511,0.0012 0.00781,0.002 0.00375,0.0011 0.00806,0.0026 0.011719,0.0039 0.00695,0.0022 0.012651,0.0034 0.019531,0.0059 0.00997,0.0033 0.020817,0.006 0.03125,0.0078 h 0.00195 c 0.00654,4.34e-4 0.012979,0.0015 0.019531,0.002 0.020265,0.0013 0.040178,0.0027 0.060547,0.0039 0.00458,2.77e-4 0.00909,-2.73e-4 0.013672,0 0.010368,6.21e-4 0.015768,0.0013 0.025391,0.002 0.00294,1.95e-4 0.00494,-1.94e-4 0.00781,0 0.010551,-1.54e-4 0.022667,-0.0014 0.033203,-0.002 0.00457,-2.34e-4 0.0091,1.96e-4 0.013672,0 0.00523,-2.28e-4 0.010435,-0.0013 0.015625,-0.002 0.00711,-7e-4 0.012461,-7.06e-4 0.019531,-0.002 0.00839,-0.0014 0.017251,-0.0034 0.025391,-0.0059 0.0078,-10e-4 0.015637,-0.0013 0.023437,0 0.00945,0.0016 0.020057,0.0053 0.029297,0.0078 0.007,0.0018 0.012929,0.0028 0.019531,0.0039 0.00305,-0.0016 0.00531,-0.0033 0.00977,-0.0039 0.00211,-2.86e-4 0.0054,0 0.00781,0 h 0.070312 0.042969 c 0.00535,-1.52e-4 0.010295,0.0016 0.015625,0.002 0.014452,0.0035 0.028396,0.0068 0.042969,0.0098 0.011478,0.0024 0.023408,0.0025 0.035156,0.0039 0.00455,-2.87e-4 0.00908,3.66e-4 0.013672,0 0.032363,-0.0028 0.066127,-0.0055 0.097656,-0.01367 0.02806,-0.0073 0.041962,0.0112 0.03125,0.02539 h 0.00391 l 0.027344,-0.002 c 0.00411,-0.0025 0.00801,-0.0016 0.011719,0 6.538e-4,2.87e-4 0.00131,-3.9e-4 0.00195,0 0.00112,-5.6e-5 0.0027,-7.9e-5 0.00391,0 h 0.00586 l 0.017578,-0.002 0.00781,-1.472656 c 0.0044,-0.80964 0.00781,-2.035882 0.00781,-2.726563 V 8.5410156 H 5.4902344 Z M 3.0234375,12.25 C 3.0093322,12.281768 3,12.81541 3,13.505859 v 0.552735 l 2.3945312,-0.002 c 1.3167662,0 2.4375296,-0.0035 2.4921876,-0.0078 0.016548,-0.0013 0.023094,-0.0024 0.035156,-0.0039 -0.00412,3.05e-4 -0.00915,4.71e-4 -0.013672,0 -0.015022,-10e-4 -0.029971,-0.0021 -0.044922,-0.0039 -0.024008,-0.003 -0.048198,-0.0054 -0.072266,-0.0078 -0.011041,-0.0012 -0.022013,-0.0043 -0.033203,-0.0059 -0.022671,0.0013 -0.045489,0.0029 -0.068359,0.0039 -0.012609,5.39e-4 -0.026444,0.0018 -0.039063,0.002 -0.00942,6e-4 -0.018274,-0.0013 -0.027344,-0.0039 -0.00698,-0.0026 -0.013321,-0.0058 -0.019531,-0.0098 -0.00237,-0.0015 -0.00511,-0.0031 -0.00781,-0.0039 -0.00393,-8.74e-4 -0.00772,-1.13e-4 -0.011719,0 -0.00838,3e-4 -0.017031,0.0013 -0.025391,0.002 -0.00625,5.76e-4 -0.011308,1.99e-4 -0.017578,0 -0.013398,-0.001 -0.028081,-0.0044 -0.041016,-0.0078 -0.00806,-0.0022 -0.015199,-0.0045 -0.023437,-0.0059 -0.00355,-2.49e-4 -0.00814,-4.77e-4 -0.011719,0 -0.00773,0.0024 -0.015452,0.0046 -0.023438,0.0059 -0.00774,0.0013 -0.015639,0.0011 -0.023437,0.002 -0.00599,7.76e-4 -0.013501,0.0017 -0.019531,0.002 -0.00444,2.58e-4 -0.00728,-2.78e-4 -0.011719,0 -0.011061,6.34e-4 -0.022127,0.0018 -0.033203,0.002 -0.011032,1.44e-4 -0.02217,-6.2e-5 -0.033203,0 -0.00621,4e-4 -0.013381,-0.0013 -0.019531,-0.002 -0.013252,-6.11e-4 -0.02581,-0.0014 -0.039062,-0.002 -0.014896,-4e-4 -0.03029,-0.0012 -0.044922,-0.0039 -0.01258,-0.0022 -0.024984,-0.0059 -0.037109,-0.0098 -0.00682,-0.0025 -0.012641,-0.0037 -0.019531,-0.0059 -0.0032,-10e-4 -0.00651,-0.003 -0.00977,-0.0039 -0.00118,-2.69e-4 -0.00271,1.65e-4 -0.00391,0 -0.00281,-4.59e-4 -0.00497,-0.0018 -0.00781,-0.002 -0.00446,3.72e-4 -0.00921,0.0016 -0.013672,0.002 -0.00431,3.31e-4 -0.00935,-1.86e-4 -0.013672,0 -0.00836,2.21e-4 -0.017021,-1.3e-5 -0.025391,0 -0.022513,1.39e-4 -0.043896,3.07e-4 -0.066406,0 -0.01609,-2.19e-4 -0.032737,1.42e-4 -0.048828,0 -0.00592,-4.7e-5 -0.0024,4e-5 -0.00781,0 -0.024168,-1.81e-4 -0.033386,-0.01595 -0.027344,-0.02734 -0.019964,-0.0017 -0.043959,-0.0041 -0.0625,-0.0059 -1.7588362,-0.1666 -3.1462781,-0.689164 -3.6660157,-1.378906 -0.059067,-0.07839 -0.1380547,-0.219408 -0.1796874,-0.324219 -9.67e-4,-0.0024 -0.00297,-0.0041 -0.00391,-0.002 z m 4.9199219,1.789062 c -0.00125,7.49e-4 -0.00241,0.0013 -0.00391,0.002 0.00252,-3.9e-4 0.00349,-0.0016 0.00586,-0.002 -4.463e-4,3.05e-4 -0.00147,-2.88e-4 -0.00195,0 z" />
    <path
       style="fill:#008080;stroke-width:0.00408745;fill-opacity:0"
       d="m 3.0017364,13.455482 c 0.00359,-0.764018 0.011453,-1.183001 0.022408,-1.194146 0.00165,-0.0017 0.012668,0.01855 0.024476,0.04496 0.026851,0.06006 0.082394,0.160705 0.1212357,0.219693 0.1463271,0.22222 0.4150482,0.449356 0.7602266,0.64258 0.6582823,0.368492 1.6111782,0.637271 2.705892,0.763239 0.07142,0.0082 0.2874658,0.03092 0.2942584,0.03092 8.322e-4,0 0.0021,0.0041 0.00282,0.0091 0.00252,0.01755 0.015092,0.0196 0.1177985,0.01921 0.093534,-3.53e-4 0.097021,-6.9e-5 0.1328421,0.01083 0.036205,0.01102 0.038565,0.0112 0.1491919,0.01135 0.066372,8.9e-5 0.1174268,-0.0016 0.1246673,-0.004 0.00934,-0.0032 0.020546,-0.0023 0.047006,0.0037 0.023433,0.0053 0.043365,0.0072 0.061228,0.0058 0.021532,-0.0016 0.029557,-4.14e-4 0.042918,0.0065 0.017616,0.0091 0.026764,0.0097 0.1165761,0.0077 0.033087,-7.59e-4 0.07126,0.0015 0.1083175,0.0064 l 0.057224,0.0076 -0.3392584,0.0029 c -0.1865921,0.0016 -1.2872734,0.0041 -2.4459586,0.0055 l -2.1067002,0.0027 z"
       id="path917" />
    <path
       style="fill:#000000;stroke-width:0.00408745;fill-opacity:0"
       d="m 3.0016944,13.455484 c 0.00356,-0.760974 0.011481,-1.182988 0.022414,-1.194112 0.00163,-0.0017 0.011864,0.01673 0.022734,0.04087 0.06069,0.134795 0.1449773,0.266977 0.2339997,0.366965 0.3307837,0.371528 0.9093005,0.689359 1.6894968,0.928191 0.5356119,0.163961 1.1857404,0.288721 1.8393525,0.352974 0.1248173,0.01227 0.1226235,0.0119 0.1226235,0.02081 0,0.0044 0.00526,0.01041 0.012387,0.01409 0.010303,0.0053 0.028354,0.0063 0.1072955,0.0059 0.092931,-5.36e-4 0.095717,-3.08e-4 0.1337391,0.01096 0.038475,0.0114 0.039842,0.0115 0.149192,0.01132 0.062579,-1.06e-4 0.1156703,-0.002 0.1226235,-0.0043 0.00925,-0.0031 0.020786,-0.0022 0.047006,0.0037 0.023433,0.0053 0.043365,0.0072 0.061228,0.0058 0.020213,-0.0015 0.029891,-2.98e-4 0.040875,0.0052 0.021521,0.01081 0.037903,0.01231 0.094095,0.0086 0.036396,-0.0024 0.062851,-0.0018 0.091968,0.0021 0.022481,0.003 0.05375,0.0069 0.069487,0.0088 0.052627,0.0063 -0.6135589,0.0092 -2.7566194,0.01191 l -2.1067148,0.0027 z"
       id="path1046" />
  </g>
</svg>
